<?xml version="1.0" standalone="no"?>
<!DOCTYPE svg PUBLIC "-//W3C//DTD SVG 20010904//EN"
 "http://www.w3.org/TR/2001/REC-SVG-20010904/DTD/svg10.dtd">
<svg version="1.0" xmlns="http://www.w3.org/2000/svg"
 width="280.000000pt" height="280.000000pt" viewBox="0 0 280.000000 280.000000"
 preserveAspectRatio="xMidYMid meet">
<metadata>
Created by potrace 1.11, written by Peter Selinger 2001-2013
</metadata>
<g transform="translate(0.000000,280.000000) scale(0.100000,-0.100000)"
fill="#000000" stroke="none">
<path d="M0 1400 l0 -1400 1400 0 1400 0 0 1400 0 1400 -1400 0 -1400 0 0
-1400z m1955 820 c195 -37 338 -110 442 -224 91 -99 111 -172 77 -286 -29 -97
-170 -219 -321 -277 -132 -50 -325 -40 -380 19 -38 41 -45 75 -28 134 16 55
44 84 80 84 41 0 50 -16 48 -78 -3 -52 0 -61 23 -83 23 -21 34 -24 108 -24 75
0 89 4 159 38 154 76 224 215 166 330 -37 71 -153 177 -249 225 -132 66 -236
85 -440 79 -538 -14 -1005 -266 -1170 -631 -36 -79 -45 -153 -30 -250 14 -95
39 -152 92 -213 184 -214 512 -324 963 -323 250 1 412 23 588 81 109 35 144
25 121 -35 -8 -20 -213 -87 -349 -115 -293 -60 -604 -55 -872 13 -261 66 -415
147 -544 284 -145 153 -196 355 -136 542 36 116 87 198 182 294 207 210 560
365 960 421 116 16 415 14 510 -5z"/>
</g>
</svg>
