<!-- Generated by IcoMoon.io -->
<svg version="1.1" xmlns="http://www.w3.org/2000/svg" width="585" height="1024" viewBox="0 0 585 1024">
<title></title>
<g id="icomoon-ignore">
</g>
<path d="M585.143 501.715c0-8.712-3.335-16.428-10.061-23.14l-468.51-468.514c-6.698-6.698-14.41-10.061-23.122-10.061s-16.428 3.363-23.126 10.061l-50.266 50.273c-6.712 6.701-10.057 14.399-10.057 23.126s3.345 16.424 10.057 23.126l395.129 395.129-395.129 395.136c-6.712 6.701-10.057 14.414-10.057 23.115 0 8.723 3.345 16.435 10.057 23.136l50.263 50.256c6.701 6.709 14.414 10.050 23.126 10.050s16.424-3.349 23.126-10.050l468.51-468.517c6.726-6.698 10.061-14.414 10.061-23.126z"></path>
</svg>
