<!-- Generated by IcoMoon.io -->
<svg version="1.1" xmlns="http://www.w3.org/2000/svg" width="811" height="1024" viewBox="0 0 811 1024">
<title></title>
<g id="icomoon-ignore">
</g>
<path d="M690.924 1022.623h-577.027c-62.45 0-112.409-49.642-112.409-111.695v-2.482l49.959-647.825c2.498-19.858 17.487-34.749 37.469-34.749h626.986c19.985 0 34.971 14.893 37.469 34.749l49.959 647.827v2.482c0.002 62.051-49.957 111.693-112.406 111.693zM76.428 913.41c0 19.858 17.487 37.231 37.469 37.231h577.027c19.985 0 37.469-14.893 37.469-37.231l-47.461-610.597h-557.042c0 0.002-47.461 610.597-47.461 610.597z"></path>
<path d="M566.028 297.852c-19.985 0-37.469-17.375-37.469-37.231v-62.053c0-69.5-54.955-124.104-124.897-124.104s-124.897 54.606-124.897 124.104v62.053c0 19.858-17.487 37.231-37.469 37.231s-37.469-17.375-37.469-37.231v-62.053c-0.005-109.213 89.921-198.568 199.832-198.568s199.837 89.355 199.837 198.568v62.053c0 19.855-17.487 37.231-37.469 37.231z"></path>
</svg>
