<!-- Generated by IcoMoon.io -->
<svg version="1.1" xmlns="http://www.w3.org/2000/svg" width="1164" height="1024" viewBox="0 0 1164 1024">
<title></title>
<g id="icomoon-ignore">
</g>
<path d="M808.705 2.184c-83.97 0-163.083 32.639-222.533 91.712l-24.52 24.365-24.983-24.824c-59.45-59.073-138.562-91.712-222.533-91.712-83.739 0-162.62 32.409-222.070 91.482s-92.066 137.453-92.066 220.89c0 83.437 32.848 161.817 92.298 220.89l441.595 438.791c7.634 7.585 17.812 11.263 27.759 11.263 10.178 0 20.356-3.908 27.99-11.493l440.67-437.872c59.45-59.073 92.298-137.453 92.298-220.89s-32.617-162.047-92.066-220.89c-59.219-59.302-138.1-91.712-221.839-91.712zM974.332 479.82l-412.449 410.060-413.374-410.749c-44.414-44.132-68.934-102.745-69.166-165.265 0-62.29 24.289-120.903 68.703-165.035 44.414-43.902 103.401-68.267 165.858-68.267 62.92 0 121.907 24.365 166.552 68.726l52.973 52.637c14.805 14.711 41.175 14.711 56.211 0l52.742-52.407c44.414-44.132 103.633-68.497 166.321-68.497s121.676 24.365 166.090 68.497c44.414 44.132 68.934 102.745 68.703 165.265 0 62.29-24.52 120.903-69.166 165.035z"></path>
</svg>
