<!-- Generated by IcoMoon.io -->
<svg version="1.1" xmlns="http://www.w3.org/2000/svg" width="1132" height="1024" viewBox="0 0 1132 1024">
    <path d="M639.886 269.702c-44.057 0-85.565 16.24-116.757 45.632l-12.865 12.123-13.108-12.352c-31.192-29.392-72.7-45.632-116.757-45.632-43.936 0-85.323 16.126-116.514 45.518s-48.305 68.391-48.305 109.906c0 41.515 17.234 80.514 48.426 109.906l231.694 218.325c4.005 3.774 9.345 5.604 14.564 5.604 5.34 0 10.68-1.944 14.686-5.718l231.208-217.868c31.192-29.392 48.426-68.391 48.426-109.906s-17.113-80.628-48.305-109.906c-31.071-29.507-72.457-45.632-116.393-45.632z"></path>
</svg>
