<!-- Generated by IcoMoon.io -->
<svg version="1.1" xmlns="http://www.w3.org/2000/svg" width="1024" height="1024" viewBox="0 0 1024 1024">
<title></title>
<g id="icomoon-ignore">
</g>
<path d="M335.958 213.334h645.376c23.564 0 42.666-19.104 42.666-42.668s-19.102-42.666-42.666-42.666h-645.376c-18.944-73.614-85.76-128-165.29-128-94.264 0-170.668 76.404-170.668 170.666s76.404 170.666 170.666 170.666c79.53 0.002 146.348-54.386 165.292-127.998zM85.334 170.666c0-47.134 38.198-85.334 85.334-85.334s85.332 38.2 85.332 85.334c0 47.134-38.198 85.334-85.334 85.334s-85.332-38.198-85.332-85.334z"></path>
<path d="M853.334 1024c94.262 0 170.666-76.404 170.666-170.666s-76.404-170.666-170.666-170.666c-79.53 0-146.346 54.386-165.29 128h-645.376c-23.564 0-42.666 19.102-42.666 42.666s19.1 42.666 42.664 42.666h645.376c18.944 73.614 85.762 128 165.292 128zM768 853.334c0-47.136 38.198-85.334 85.334-85.334s85.334 38.198 85.334 85.334c0 47.136-38.198 85.334-85.334 85.334s-85.334-38.2-85.334-85.334z"></path>
<path d="M677.29 554.666h304.044c23.564 0 42.666-19.102 42.666-42.666s-19.102-42.666-42.666-42.666h-304.042c-18.944-73.614-85.76-128-165.29-128s-146.346 54.386-165.29 128h-304.042c-23.564 0-42.666 19.102-42.666 42.666s19.102 42.666 42.666 42.666h304.040c18.944 73.614 85.76 128 165.29 128s146.346-54.386 165.29-128zM426.666 512c0-47.134 38.198-85.334 85.334-85.334s85.334 38.198 85.334 85.334c0 47.136-38.198 85.334-85.334 85.334s-85.334-38.2-85.334-85.334z"></path>
</svg>
