<!-- Generated by IcoMoon.io -->
<svg version="1.1" xmlns="http://www.w3.org/2000/svg" width="1024" height="1024" viewBox="0 0 1024 1024">
<title></title>
<g id="icomoon-ignore">
</g>
<path d="M737.316 0h-456.294c-154.955 0-281.022 126.072-281.022 281.028v456.294c0 154.961 126.066 281.028 281.022 281.028h456.294c154.967 0 281.034-126.072 281.034-281.028v-456.294c0.006-154.955-126.066-281.028-281.034-281.028zM928.003 737.322c0 105.141-85.54 190.675-190.681 190.675h-456.3c-105.135 0.006-190.669-85.534-190.669-190.675v-456.294c0-105.135 85.534-190.675 190.669-190.675h456.294c105.141 0 190.681 85.54 190.681 190.675v456.294h0.006z"></path>
<path d="M509.175 246.784c-144.691 0-262.403 117.712-262.403 262.403 0 144.685 117.712 262.391 262.403 262.391s262.403-117.706 262.403-262.391c0-144.691-117.712-262.403-262.403-262.403zM509.175 681.219c-94.865 0-172.050-77.173-172.050-172.038 0-94.871 77.179-172.050 172.050-172.050s172.050 77.179 172.050 172.050c0 94.865-77.186 172.038-172.050 172.038z"></path>
<path d="M782.583 170.171c-17.408 0-34.509 7.048-46.803 19.396-12.354 12.288-19.456 29.395-19.456 46.863 0 17.414 7.108 34.515 19.456 46.863 12.288 12.288 29.395 19.396 46.803 19.396 17.468 0 34.515-7.108 46.863-19.396 12.348-12.348 19.396-29.455 19.396-46.863 0-17.468-7.048-34.575-19.396-46.863-12.288-12.348-29.395-19.396-46.863-19.396z"></path>
</svg>
