<svg id="Слой_1" data-name="Слой 1" xmlns="http://www.w3.org/2000/svg" viewBox="0 0 24 21.05"><defs><style>.cls-1{fill:#202020;}</style></defs><title>warning</title><g id="Contact-Us-1920"><g id="Failed-message"><g id="warning"><path id="Shape" class="cls-1" d="M23.59,16.45h0L14.64,1.51h0a3.08,3.08,0,0,0-4.23-1,3.09,3.09,0,0,0-1,1h0L.42,16.44h0A3.08,3.08,0,0,0,3,21.07H21a3.08,3.08,0,0,0,2.63-4.62Zm-2.65,2.68H3.07a1.14,1.14,0,0,1-1-1.71L11,2.51a1.15,1.15,0,0,1,.38-.38A1.14,1.14,0,0,1,13,2.51l8.94,14.92a1.14,1.14,0,0,1-1,1.71Z" transform="translate(0 -0.02)"/><path id="Shape-2" data-name="Shape" class="cls-1" d="M12,6.47a1,1,0,0,0-1,1v4.22a1,1,0,0,0,1.94,0V7.43A1,1,0,0,0,12,6.47Z" transform="translate(0 -0.02)"/><path id="Shape-3" data-name="Shape" class="cls-1" d="M12.69,15.19a1,1,0,1,0,.28.69A1,1,0,0,0,12.69,15.19Z" transform="translate(0 -0.02)"/></g></g></g></svg>