<svg width="10" height="13" viewBox="0 0 10 13" xmlns="http://www.w3.org/2000/svg" xmlns:xlink="http://www.w3.org/1999/xlink"><g id="Item-Page-1920" stroke="none" stroke-width="1" fill="none" fill-rule="evenodd" transform="translate(-1261 -661)"><g id="Right-Block" transform="translate(1054 208)" fill="#FE5E5E" fill-rule="nonzero"><g id="Box-Size" transform="translate(1 436)"><g id="arrow" transform="translate(206 17)"><path d="M10.325 5.717l.02.004h-8.03l2.524-2.53a.657.657 0 00.19-.467.655.655 0 00-.19-.465l-.393-.393a.651.651 0 00-.464-.192.651.651 0 00-.464.191L-.809 6.192A.65.65 0 00-1 6.657a.65.65 0 00.191.466l4.327 4.327a.651.651 0 00.464.191c.176 0 .34-.068.464-.191l.393-.393a.65.65 0 000-.919L2.286 7.594h8.048A.68.68 0 0011 6.921v-.556c0-.361-.313-.648-.675-.648z" id="Shape" transform="rotate(-90 5 6.658)"/></g></g></g></g></svg>