<?xml version="1.0" encoding="UTF-8"?><!DOCTYPE svg PUBLIC "-//W3C//DTD SVG 1.1//EN" "http://www.w3.org/Graphics/SVG/1.1/DTD/svg11.dtd"><svg xmlns="http://www.w3.org/2000/svg"><defs><style>.cls-1{fill:#202020}</style></defs><symbol id="arrow-lr" viewBox="0 0 585 1024"><title/><path d="M585.143 501.715c0-8.712-3.335-16.428-10.061-23.14L106.572 10.061C99.874 3.363 92.162 0 83.45 0S67.022 3.363 60.324 10.061L10.058 60.334C3.346 67.035.001 74.733.001 83.46s3.345 16.424 10.057 23.126l395.129 395.129L10.058 896.851C3.346 903.552.001 911.265.001 919.966c0 8.723 3.345 16.435 10.057 23.136l50.263 50.256c6.701 6.709 14.414 10.05 23.126 10.05s16.424-3.349 23.126-10.05l468.51-468.517c6.726-6.698 10.061-14.414 10.061-23.126z"/></symbol><symbol id="arrow-w" viewBox="0 0 2432 1024"><title/><path fill="none" stroke="#fff" stroke-width="128" d="M64 64l1159.435 876.959L2362.88 64"/></symbol><symbol id="bag" viewBox="0 0 811 1024"><title/><path d="M690.924 1022.623H113.897c-62.45 0-112.409-49.642-112.409-111.695v-2.482l49.959-647.825c2.498-19.858 17.487-34.749 37.469-34.749h626.986c19.985 0 34.971 14.893 37.469 34.749l49.959 647.827v2.482c.002 62.051-49.957 111.693-112.406 111.693zM76.428 913.41c0 19.858 17.487 37.231 37.469 37.231h577.027c19.985 0 37.469-14.893 37.469-37.231l-47.461-610.597H123.89L76.429 913.41z"/><path d="M566.028 297.852c-19.985 0-37.469-17.375-37.469-37.231v-62.053c0-69.5-54.955-124.104-124.897-124.104S278.765 129.07 278.765 198.568v62.053c0 19.858-17.487 37.231-37.469 37.231s-37.469-17.375-37.469-37.231v-62.053C203.822 89.355 293.748 0 403.659 0s199.837 89.355 199.837 198.568v62.053c0 19.855-17.487 37.231-37.469 37.231z"/></symbol><symbol id="cancel" viewBox="0 0 1024 1024"><title/><path d="M1024 102.4L921.6 0 512 409.6 102.4 0 0 102.4 409.6 512 0 921.6 102.4 1024 512 614.4 921.6 1024 1024 921.6 614.4 512z"/></symbol><symbol id="fb" viewBox="0 0 478 1024"><title/><path d="M103.279 198.319v140.99H0v172.393h103.279V1024h212.176V511.726h142.371s13.332-82.661 19.808-173.036h-161.37V220.793c0-17.618 23.141-41.307 45.997-41.307h115.611V-.001H320.74c-222.699 0-217.461 172.559-217.461 198.319z"/></symbol><symbol id="hearth-full" viewBox="0 0 1132 1024"><path d="M639.886 269.702c-44.057 0-85.565 16.24-116.757 45.632l-12.865 12.123-13.108-12.352c-31.192-29.392-72.7-45.632-116.757-45.632-43.936 0-85.323 16.126-116.514 45.518s-48.305 68.391-48.305 109.906 17.234 80.514 48.426 109.906L495.7 753.128c4.005 3.774 9.345 5.604 14.564 5.604 5.34 0 10.68-1.944 14.686-5.718l231.208-217.868c31.192-29.392 48.426-68.391 48.426-109.906s-17.113-80.628-48.305-109.906c-31.071-29.507-72.457-45.632-116.393-45.632z"/></symbol><symbol id="hearth" viewBox="0 0 1164 1024"><title/><path d="M808.705 2.184c-83.97 0-163.083 32.639-222.533 91.712l-24.52 24.365-24.983-24.824C477.219 34.364 398.107 1.725 314.136 1.725c-83.739 0-162.62 32.409-222.07 91.482S0 230.66 0 314.097c0 83.437 32.848 161.817 92.298 220.89l441.595 438.791c7.634 7.585 17.812 11.263 27.759 11.263 10.178 0 20.356-3.908 27.99-11.493l440.67-437.872c59.45-59.073 92.298-137.453 92.298-220.89s-32.617-162.047-92.066-220.89c-59.219-59.302-138.1-91.712-221.839-91.712zM974.332 479.82L561.883 889.88 148.509 479.131c-44.414-44.132-68.934-102.745-69.166-165.265 0-62.29 24.289-120.903 68.703-165.035 44.414-43.902 103.401-68.267 165.858-68.267 62.92 0 121.907 24.365 166.552 68.726l52.973 52.637c14.805 14.711 41.175 14.711 56.211 0l52.742-52.407c44.414-44.132 103.633-68.497 166.321-68.497s121.676 24.365 166.09 68.497c44.414 44.132 68.934 102.745 68.703 165.265 0 62.29-24.52 120.903-69.166 165.035z"/></symbol><symbol id="icon-filter" viewBox="0 0 1024 1024"><title/><path d="M335.958 213.334h645.376c23.564 0 42.666-19.104 42.666-42.668S1004.898 128 981.334 128H335.958C317.014 54.386 250.198 0 170.668 0 76.404 0 0 76.404 0 170.666s76.404 170.666 170.666 170.666c79.53.002 146.348-54.386 165.292-127.998zM85.334 170.666c0-47.134 38.198-85.334 85.334-85.334S256 123.532 256 170.666 217.802 256 170.666 256s-85.332-38.198-85.332-85.334zM853.334 1024C947.596 1024 1024 947.596 1024 853.334s-76.404-170.666-170.666-170.666c-79.53 0-146.346 54.386-165.29 128H42.668c-23.564 0-42.666 19.102-42.666 42.666S19.102 896 42.666 896h645.376c18.944 73.614 85.762 128 165.292 128zM768 853.334C768 806.198 806.198 768 853.334 768s85.334 38.198 85.334 85.334-38.198 85.334-85.334 85.334S768 900.468 768 853.334zM677.29 554.666h304.044c23.564 0 42.666-19.102 42.666-42.666s-19.102-42.666-42.666-42.666H677.292c-18.944-73.614-85.76-128-165.29-128s-146.346 54.386-165.29 128H42.67C19.106 469.334.004 488.436.004 512s19.102 42.666 42.666 42.666h304.04c18.944 73.614 85.76 128 165.29 128s146.346-54.386 165.29-128zM426.666 512c0-47.134 38.198-85.334 85.334-85.334s85.334 38.198 85.334 85.334-38.198 85.334-85.334 85.334-85.334-38.2-85.334-85.334z"/></symbol><symbol id="instagram" viewBox="0 0 1024 1024"><title/><path d="M737.316 0H281.022C126.067 0 0 126.072 0 281.028v456.294c0 154.961 126.066 281.028 281.022 281.028h456.294c154.967 0 281.034-126.072 281.034-281.028V281.028C1018.356 126.073 892.284 0 737.316 0zm190.687 737.322c0 105.141-85.54 190.675-190.681 190.675h-456.3c-105.135.006-190.669-85.534-190.669-190.675V281.028c0-105.135 85.534-190.675 190.669-190.675h456.294c105.141 0 190.681 85.54 190.681 190.675v456.294h.006z"/><path d="M509.175 246.784c-144.691 0-262.403 117.712-262.403 262.403 0 144.685 117.712 262.391 262.403 262.391s262.403-117.706 262.403-262.391c0-144.691-117.712-262.403-262.403-262.403zm0 434.435c-94.865 0-172.05-77.173-172.05-172.038 0-94.871 77.179-172.05 172.05-172.05s172.05 77.179 172.05 172.05c0 94.865-77.186 172.038-172.05 172.038zM782.583 170.171c-17.408 0-34.509 7.048-46.803 19.396-12.354 12.288-19.456 29.395-19.456 46.863 0 17.414 7.108 34.515 19.456 46.863 12.288 12.288 29.395 19.396 46.803 19.396 17.468 0 34.515-7.108 46.863-19.396 12.348-12.348 19.396-29.455 19.396-46.863 0-17.468-7.048-34.575-19.396-46.863-12.288-12.348-29.395-19.396-46.863-19.396z"/></symbol><symbol id="warning" viewBox="0 0 24 21.05"><title>warning</title><g id="Contact-Us-1920"><g id="Failed-message"><g id="warning"><path id="Shape" class="cls-1" d="M23.59 16.45L14.64 1.51a3.08 3.08 0 0 0-4.23-1 3.09 3.09 0 0 0-1 1L.42 16.44A3.08 3.08 0 0 0 3 21.07h18a3.08 3.08 0 0 0 2.63-4.62zm-2.65 2.68H3.07a1.14 1.14 0 0 1-1-1.71L11 2.51a1.15 1.15 0 0 1 .38-.38 1.14 1.14 0 0 1 1.62.38l8.94 14.92a1.14 1.14 0 0 1-1 1.71z" transform="translate(0 -.02)"/><path id="Shape-2" data-name="Shape" class="cls-1" d="M12 6.47a1 1 0 0 0-1 1v4.22a1 1 0 0 0 1.94 0V7.43a1 1 0 0 0-.94-.96z" transform="translate(0 -.02)"/><path id="Shape-3" data-name="Shape" class="cls-1" d="M12.69 15.19a1 1 0 1 0 .28.69 1 1 0 0 0-.28-.69z" transform="translate(0 -.02)"/></g></g></g></symbol></svg>