<?xml version="1.0" encoding="UTF-8"?>
<svg width="10px" height="13px" viewBox="0 0 10 13" version="1.1" xmlns="http://www.w3.org/2000/svg" xmlns:xlink="http://www.w3.org/1999/xlink">
    <!-- Generator: Sketch 48.2 (47327) - http://www.bohemiancoding.com/sketch -->
    <title>arrow</title>
    <desc>Created with Sketch.</desc>
    <defs></defs>
    <g id="Item-Page-1920" stroke="none" stroke-width="1" fill="none" fill-rule="evenodd" transform="translate(-1261.000000, -661.000000)">
        <g id="Right-Block" transform="translate(1054.000000, 208.000000)" fill="#FFFFFF" fill-rule="nonzero">
            <g id="Box-Size" transform="translate(1.000000, 436.000000)">
                <g id="arrow" transform="translate(206.000000, 17.000000)">
                    <path d="M10.3253564,5.7165357 L10.3440881,5.72063326 L2.31423619,5.72063326 L4.83852832,3.19078016 C4.96213805,3.06726799 5.02994292,2.89995095 5.02994292,2.72434123 C5.02994292,2.54873152 4.96213805,2.38258521 4.83852832,2.25878036 L4.44574792,1.86580484 C4.32223575,1.74229267 4.15765042,1.674 3.98213827,1.674 C3.80652855,1.674 3.64184566,1.74180486 3.51833349,1.86531703 L-0.80878752,6.1920478 C-0.932787493,6.31604777 -1.00059236,6.48121847 -1.00010455,6.65692574 C-1.00059236,6.83360863 -0.932787493,6.99887689 -0.80878752,7.12268174 L3.51833349,11.4498027 C3.64184566,11.5732174 3.80643099,11.6411198 3.98213827,11.6411198 C4.15765042,11.6411198 4.32223575,11.5731198 4.44574792,11.4498027 L4.83852832,11.0568272 C4.96213805,10.9335102 5.02994292,10.7688273 5.02994292,10.5932176 C5.02994292,10.4177054 4.96213805,10.2617054 4.83852832,10.1382908 L2.28574839,7.59429139 L10.334332,7.59429139 C10.6959905,7.59429139 10.9998928,7.28258414 10.9998928,6.92112081 L10.9998928,6.36531605 C10.9998928,6.00385272 10.6870149,5.7165357 10.3253564,5.7165357 Z" id="Shape" transform="translate(4.999893, 6.657560) rotate(-90.000000) translate(-4.999893, -6.657560) "></path>
                </g>
            </g>
        </g>
    </g>
</svg>