<svg version="1" xmlns="http://www.w3.org/2000/svg" width="1024" height="1024" viewBox="0 0 768.000000 768.000000"><path d="M20.9 3.2c-.7 1.2-.3 750.1.4 750.5 1.3.8 79.7.6 80.5-.2.4-.4.7-130.4.8-289.1 0-158.6.3-288.7.7-289 1.7-1.8 3.7 1.7 9.6 16.7 3.6 9 7.2 18.2 8.2 20.4 1.9 4.7 6.3 15.7 15.4 39 3.7 9.3 7.1 17.9 7.5 19 .5 1.1 2.3 5.6 4 10 1.7 4.4 3.7 9.4 4.5 11.2.8 1.7 1.5 3.4 1.5 3.8 0 .4.7 2.3 1.6 4.3 2.1 4.8 1.4 3.1 15.4 38.7 6.7 17 12.6 31.9 13 33 .5 1.1 1.9 4.5 3.1 7.5 1.2 3 2.9 7.3 3.9 9.5s2.1 5.1 2.5 6.5c.4 1.4 1.3 3.8 2.1 5.5 2.5 5.7 6.5 16 6.9 17.6.2.8 1.2 3.5 2.3 6 3.6 8 8.7 21.4 8.4 22.2-.1.4.3.7.8.7.6 0 1 .6 1 1.2 0 1.2 10.3 28 13.5 35.3.8 1.6 2.6 6.1 4.1 10 1.4 3.8 3.3 8.4 4 10.2.8 1.7 1.4 3.3 1.4 3.6 0 .2.8 2.2 1.7 4.3.9 2.2 1.8 4.4 1.9 5 .1.6.9 2.7 1.7 4.5.9 1.9 4.6 11 8.2 20.4 3.7 9.3 7.3 18.3 8 20 1.8 4.1 15.9 39.9 16 40.5.1.3.8 2.1 1.7 4 .8 1.9 2.1 5.3 2.8 7.5.7 2.2 1.6 4.4 2 5 .4.5 1.7 3.7 2.9 7 2.1 5.8 2.5 7 4.9 12.5.6 1.4 4.1 10.1 7.7 19.5 3.7 9.3 7.3 18.3 8 20 .7 1.6 2.2 5.5 3.3 8.5 1.1 3 2.7 6.8 3.6 8.5.9 1.6 1.6 3.7 1.6 4.5 0 .9.8 2.7 1.7 4 1 1.4 1.7 2.7 1.7 3-.2.7.6 3 2.4 7.5 1 2.1 1.7 4.2 1.8 4.5 0 .3.6 1.8 1.3 3.5 1.9 5.1 4.3 10.9 5.2 13 .4 1.1 1.9 4.7 3.2 8l2.3 6 37.7.2 37.7.1 1.1-3.9c.7-2.1 1.5-3.9 1.9-3.9.4 0 1-1.3 1.3-2.9.4-1.6 1.5-4.9 2.5-7.3 1.1-2.4 2.7-6.3 3.7-8.8.9-2.5 2.5-6.5 3.6-9 1-2.5 3.6-9.2 5.9-15 2.2-5.8 4.5-11.4 4.9-12.5.5-1.1 2.6-6.3 4.6-11.5 2-5.2 4-10.4 4.5-11.5.5-1.1 1.8-4.3 2.8-7 1-2.8 2.3-5.9 2.7-7 .5-1.1.9-2.2 1-2.5.4-1.1 1.9-4.7 3.3-8 .9-1.9 1.6-4 1.7-4.5.1-.6 1.2-3.2 2.3-5.8 1.2-2.7 2.2-5.1 2.2-5.4 0-.5 10-25.9 12.7-32.3 2.1-5 2.6-6.3 7.3-18.5 2.3-6.1 4.8-12.4 5.5-14 1.5-3.5 2.7-6.6 3.1-8 .1-.6 3-7.8 6.3-16 19.3-48.1 28.4-71.1 28.4-72.3 0-.6.4-1.2.9-1.2.4 0 .8-.9.8-1.9 0-1.1.7-3.2 1.5-4.8.8-1.5 3.5-8.2 6.1-14.8 2.5-6.6 5.2-13.2 6-14.7.8-1.5 1.4-2.9 1.4-3-.2-.4.8-3 4.6-12.7 1.9-4.7 3.4-9.1 3.4-9.8 0-.7.5-1.3 1-1.3.6 0 1-.7 1-1.5 0-1.4 10-27.1 16.6-42.8 1.3-3.2 2.4-6.5 2.4-7.3 0-.8.4-1.4.8-1.4.5 0 .9-.6.9-1.3.1-1.1 7.2-19.6 9.3-24.2 1.2-2.5 3.2-7.6 3.6-9 .1-.6 1.8-4.8 3.6-9.5 4-9.7 4.6-11.3 4.5-12 0-.3.9-2.3 2-4.5 1.2-2.2 2.1-4.3 2.2-4.8 0-.4.8-2.4 1.7-4.5.9-2 1.7-4.2 1.8-4.7.3-1.1 1.3-3.5 4.1-10 .9-2.2 1.8-4.5 1.9-5 .2-.6.7-1.9 1.1-3 .4-1.1 3-7.6 5.7-14.5 2.6-6.9 5.3-13.3 5.8-14.2.6-1 1-2.2 1-2.8 0-.6.9-2.9 1.9-5.3 1-2.3 3.6-8.5 5.6-13.7 2-5.2 4.2-10.6 4.8-12 .5-1.4 1.1-3 1.3-3.5.9-4 4.6-10.5 5.9-10.5.8 0 1.5.6 1.6 1.2 0 .7.1 131 .1 289.5 0 265.5.2 288.3 1.7 288.4h77.6l3-.1V3.5l-51.7-.3-51.6-.2-2 5.2c-1.1 2.9-4.6 11.8-7.7 19.8-3.1 8-7.2 18.5-9.1 23.5-1.9 4.9-3.9 9.9-4.4 11-.6 1.1-2.1 4.9-3.4 8.5-3 8.1-19.2 49.6-20.7 53-.6 1.4-1.5 3.3-2 4.2-.5 1-.9 2.3-.9 3-.1.7-.9 3.1-2 5.3-1.1 2.2-1.9 4.6-2 5.3 0 .7-.4 2-1 3-.5.9-3.6 8.4-6.8 16.7-3.2 8.2-6.2 15.9-6.7 17-.4 1.1-.9 2.4-1.1 3-.2 1-11.8 30.3-13.4 34-.5 1.1-3.2 8.1-6 15.5s-5.5 14.4-6 15.5c-.5 1.1-1.9 4.5-3 7.5s-2.5 6.4-3 7.5c-.5 1.1-2.6 6.3-4.6 11.5-5.3 13.9-10 25.9-15.6 40-2.7 6.9-5.1 12.9-5.2 13.5-.3 1.2-.7 2.2-5.2 13.3-1.9 4.5-3.4 8.9-3.4 9.7 0 .8-.4 1.5-1 1.5-.5 0-1 .6-1 1.3 0 1-23.4 61.6-27.5 71.2-.4 1.1-.9 2.2-1 2.5-.3 1.2-4.6 12.7-5.5 14.5-1.4 2.9-14 35.4-14 36 0 .3-.8 2.4-1.9 4.8-1 2.3-2.4 5.8-3.1 7.7-.7 1.9-1.9 4.8-2.6 6.5-.7 1.6-3.3 8.4-5.9 15-2.5 6.6-5.4 13.8-6.3 16-.9 2.1-1.7 4.2-1.8 4.5 0 .3-.4 1.4-.9 2.5-.4 1.1-2.5 6.3-4.5 11.5s-4.1 10.4-4.5 11.5c-.5 1.1-.9 2.2-1 2.5-.1.3-.7 1.8-1.4 3.5-1.3 3.3-1.7 4.5-2.1 6-.2.5-2.3 5.7-4.7 11.5-2.4 5.8-4.4 10.7-4.5 11-.1.7-1.2 3.7-3.1 8.2-.8 2-1.3 3.9-.9 4.2.3.3 0 .6-.6.6-.7 0-1.2.7-1.2 1.5s-1.1 3.9-2.5 7c-1.3 3-2.4 5.6-2.4 5.8.1.3-2 5.9-3.4 8.9-1.9 4.5-4.2 3.5-6.8-2.9-1.3-3.2-2.4-6-2.5-6.3-.1-.7-1.3-3.9-2.6-7-1.6-3.8-2.4-5.7-6.2-15.5-1.9-5-4-10.4-4.7-12-.7-1.7-1.3-3.2-1.3-3.5-.1-.6-2.5-6.7-3.6-9.5-.5-1.1-2.3-5.6-4-10-1.8-4.4-3.5-8.9-4-10-.5-1.1-3.6-9.2-7-18s-6.9-17.5-7.7-19.4c-.8-1.8-1.6-3.9-1.8-4.5-.1-.6-.7-2.2-1.2-3.6-3.1-7.4-13.7-34.6-13.8-35 0-.3-.8-2.6-1.9-5-2.1-5.2-3.6-8.7-4.6-11.5-.5-1.1-3.6-9.2-7-18s-6.6-16.9-7-18c-.5-1.1-3.4-8.5-6.5-16.5s-7.2-18.6-9.1-23.5c-2-5-4-10.1-4.7-11.5-.6-1.4-1.1-2.7-1.2-3-.2-.6-.2-.5-8-20.5-3.4-8.8-7.4-18.9-8.8-22.5-8.6-22.3-15.2-39.1-16.8-42.7-1-2.4-1.9-4.7-1.9-5.3 0-.6-.4-1.8-1-2.8-.5-.9-4.7-11.4-9.3-23.2-4.6-11.8-12.3-31.4-17-43.5-4.7-12.1-14.1-36-20.7-53-6.7-17.1-13.2-33.7-14.5-37-1.3-3.3-4.9-12.5-8-20.5-3.1-8-6-15.4-6.5-16.5-.5-1.1-2.5-6.2-4.4-11.3-8.1-20.8-10.8-27.8-12.1-30.7-.7-1.7-3.6-9.2-6.6-16.8L123.7 3H72.3c-28.2 0-51.4.1-51.4.2z"/></svg>